<?xml version="1.0" encoding="UTF-8" standalone="no"?>
<!DOCTYPE svg PUBLIC "-//W3C//DTD SVG 1.1//EN"
 "http://www.w3.org/Graphics/SVG/1.1/DTD/svg11.dtd">
<!-- Generated by graphviz version 2.38.0 (20140413.2041)
 -->
<!-- Title: diagram Pages: 1 -->
<svg width="447pt" height="849pt"
 viewBox="0.00 0.00 446.79 849.29" xmlns="http://www.w3.org/2000/svg" xmlns:xlink="http://www.w3.org/1999/xlink">
<g id="graph0" class="graph" transform="scale(1 1) rotate(0) translate(4 845.29)">
<title>diagram</title>
<polygon fill="white" stroke="none" points="-4,4 -4,-845.29 442.794,-845.29 442.794,4 -4,4"/>
<!-- 8cc.c -->
<g id="node1" class="node"><title>8cc.c</title>
<ellipse fill="none" stroke="black" cx="338.897" cy="-808.042" rx="29.4667" ry="29.4667"/>
<ellipse fill="none" stroke="black" cx="338.897" cy="-808.042" rx="33.4967" ry="33.4967"/>
<text text-anchor="middle" x="338.897" y="-804.342" font-family="Times,serif" font-size="14.00">8cc.c</text>
</g>
<!-- m0 -->
<g id="node4" class="node"><title>m0</title>
<polygon fill="lightgrey" stroke="black" points="210.897,-737.795 207.397,-734.295 210.897,-730.795 214.397,-734.295 210.897,-737.795"/>
</g>
<!-- 8cc.c&#45;&gt;m0 -->
<g id="edge1" class="edge"><title>8cc.c&#45;&gt;m0</title>
<path fill="none" stroke="black" d="M311.707,-788.779C304.394,-784.068 296.424,-779.112 288.897,-774.795 259.404,-757.877 221.805,-740.323 212.866,-736.199"/>
</g>
<!-- m1 -->
<g id="node6" class="node"><title>m1</title>
<polygon fill="lightgrey" stroke="black" points="292.897,-589 289.397,-585.5 292.897,-582 296.397,-585.5 292.897,-589"/>
</g>
<!-- 8cc.c&#45;&gt;m1 -->
<g id="edge4" class="edge"><title>8cc.c&#45;&gt;m1</title>
<path fill="none" stroke="black" d="M332.307,-775.444C320.581,-719.226 296.982,-606.085 293.367,-588.75"/>
</g>
<!-- m2 -->
<g id="node9" class="node"><title>m2</title>
<polygon fill="lightgrey" stroke="black" points="324.897,-385 321.397,-381.5 324.897,-378 328.397,-381.5 324.897,-385"/>
</g>
<!-- 8cc.c&#45;&gt;m2 -->
<g id="edge8" class="edge"><title>8cc.c&#45;&gt;m2</title>
<path fill="none" stroke="black" d="M350.606,-776.783C354.516,-764.155 357.897,-749.211 357.897,-735.295 357.897,-735.295 357.897,-735.295 357.897,-439 357.897,-413.555 332.632,-389.381 326.315,-383.735"/>
</g>
<!-- m3 -->
<g id="node12" class="node"><title>m3</title>
<polygon fill="lightgrey" stroke="black" points="395.897,-181 392.397,-177.5 395.897,-174 399.397,-177.5 395.897,-181"/>
</g>
<!-- 8cc.c&#45;&gt;m3 -->
<g id="edge12" class="edge"><title>8cc.c&#45;&gt;m3</title>
<path fill="none" stroke="black" d="M365.728,-787.923C380.512,-774.992 395.897,-756.453 395.897,-735.295 395.897,-735.295 395.897,-735.295 395.897,-235 395.897,-214.205 395.897,-189.104 395.897,-181.091"/>
</g>
<!-- lisp.c -->
<g id="node2" class="node"><title>lisp.c</title>
<ellipse fill="none" stroke="black" cx="33.8973" cy="-659.897" rx="29.8071" ry="29.8071"/>
<ellipse fill="none" stroke="black" cx="33.8973" cy="-659.897" rx="33.795" ry="33.795"/>
<text text-anchor="middle" x="33.8973" y="-656.197" font-family="Times,serif" font-size="14.00">lisp.c</text>
</g>
<!-- m4 -->
<g id="node15" class="node"><title>m4</title>
<polygon fill="lightgrey" stroke="black" points="72.8973,-589 69.3973,-585.5 72.8973,-582 76.3973,-585.5 72.8973,-589"/>
</g>
<!-- lisp.c&#45;&gt;m4 -->
<g id="edge17" class="edge"><title>lisp.c&#45;&gt;m4</title>
<path fill="none" stroke="black" d="M49.7601,-629.451C58.7017,-612.852 68.7011,-594.29 71.8742,-588.399"/>
</g>
<!-- gcc (host=target=x64) -->
<g id="node3" class="node"><title>gcc (host=target=x64)</title>
<polygon fill="none" stroke="black" points="279.897,-826.042 141.897,-826.042 141.897,-790.042 279.897,-790.042 279.897,-826.042"/>
<text text-anchor="middle" x="210.897" y="-804.342" font-family="Times,serif" font-size="14.00">gcc (host=target=x64)</text>
</g>
<!-- gcc (host=target=x64)&#45;&gt;m0 -->
<g id="edge3" class="edge"><title>gcc (host=target=x64)&#45;&gt;m0</title>
<path fill="none" stroke="black" d="M210.897,-790.039C210.897,-772.469 210.897,-746.456 210.897,-738.033"/>
</g>
<!-- 8cc (host=x64 target=bfs) -->
<g id="node5" class="node"><title>8cc (host=x64 target=bfs)</title>
<ellipse fill="none" stroke="black" cx="188.897" cy="-659.897" rx="102.882" ry="18"/>
<text text-anchor="middle" x="188.897" y="-656.197" font-family="Times,serif" font-size="14.00">8cc (host=x64 target=bfs)</text>
</g>
<!-- m0&#45;&gt;8cc (host=x64 target=bfs) -->
<g id="edge2" class="edge"><title>m0&#45;&gt;8cc (host=x64 target=bfs)</title>
<path fill="none" stroke="black" d="M210.263,-731.206C208.307,-724.772 202.194,-704.655 197.005,-687.579"/>
<polygon fill="black" stroke="black" points="200.352,-686.553 194.095,-678.003 193.654,-688.589 200.352,-686.553"/>
</g>
<!-- 8cc (host=x64 target=bfs)&#45;&gt;m1 -->
<g id="edge6" class="edge"><title>8cc (host=x64 target=bfs)&#45;&gt;m1</title>
<path fill="none" stroke="black" d="M212.757,-642.288C240.103,-623.252 282.307,-593.872 291.212,-587.673"/>
</g>
<!-- 8cc (host=x64 target=bfs)&#45;&gt;m4 -->
<g id="edge19" class="edge"><title>8cc (host=x64 target=bfs)&#45;&gt;m4</title>
<path fill="none" stroke="black" d="M162.575,-642.469C132.094,-623.445 84.7737,-593.912 74.7871,-587.679"/>
</g>
<!-- 8cc.bfs -->
<g id="node7" class="node"><title>8cc.bfs</title>
<ellipse fill="none" stroke="black" cx="292.897" cy="-527" rx="36.2938" ry="18"/>
<text text-anchor="middle" x="292.897" y="-523.3" font-family="Times,serif" font-size="14.00">8cc.bfs</text>
</g>
<!-- m1&#45;&gt;8cc.bfs -->
<g id="edge5" class="edge"><title>m1&#45;&gt;8cc.bfs</title>
<path fill="none" stroke="black" d="M292.897,-581.775C292.897,-576.83 292.897,-565.897 292.897,-555.171"/>
<polygon fill="black" stroke="black" points="296.397,-555.153 292.897,-545.153 289.397,-555.153 296.397,-555.153"/>
</g>
<!-- 8cc.bf -->
<g id="node8" class="node"><title>8cc.bf</title>
<ellipse fill="none" stroke="black" cx="295.897" cy="-440" rx="32.4942" ry="18"/>
<text text-anchor="middle" x="295.897" y="-436.3" font-family="Times,serif" font-size="14.00">8cc.bf</text>
</g>
<!-- 8cc.bfs&#45;&gt;8cc.bf -->
<g id="edge7" class="edge"><title>8cc.bfs&#45;&gt;8cc.bf</title>
<path fill="none" stroke="black" d="M293.083,-508.871C293.227,-499.215 293.476,-486.932 293.897,-476 293.996,-473.446 294.116,-470.787 294.248,-468.128"/>
<polygon fill="black" stroke="black" points="297.746,-468.259 294.794,-458.084 290.756,-467.879 297.746,-468.259"/>
<text text-anchor="middle" x="318.897" y="-479.8" font-family="Times,serif" font-size="14.00">bfcore.rb</text>
</g>
<!-- 8cc.bf&#45;&gt;m2 -->
<g id="edge10" class="edge"><title>8cc.bf&#45;&gt;m2</title>
<path fill="none" stroke="black" d="M304.441,-422.354C311.525,-408.552 320.905,-390.278 323.92,-384.404"/>
</g>
<!-- 8cc.2.bfs -->
<g id="node10" class="node"><title>8cc.2.bfs</title>
<ellipse fill="none" stroke="black" cx="324.897" cy="-323" rx="42.7926" ry="18"/>
<text text-anchor="middle" x="324.897" y="-319.3" font-family="Times,serif" font-size="14.00">8cc.2.bfs</text>
</g>
<!-- m2&#45;&gt;8cc.2.bfs -->
<g id="edge9" class="edge"><title>m2&#45;&gt;8cc.2.bfs</title>
<path fill="none" stroke="black" d="M324.897,-377.775C324.897,-372.83 324.897,-361.897 324.897,-351.171"/>
<polygon fill="black" stroke="black" points="328.397,-351.153 324.897,-341.153 321.397,-351.153 328.397,-351.153"/>
</g>
<!-- 8cc.2.bf -->
<g id="node11" class="node"><title>8cc.2.bf</title>
<ellipse fill="none" stroke="black" cx="324.897" cy="-236" rx="39.7935" ry="18"/>
<text text-anchor="middle" x="324.897" y="-232.3" font-family="Times,serif" font-size="14.00">8cc.2.bf</text>
</g>
<!-- 8cc.2.bfs&#45;&gt;8cc.2.bf -->
<g id="edge11" class="edge"><title>8cc.2.bfs&#45;&gt;8cc.2.bf</title>
<path fill="none" stroke="black" d="M324.897,-304.799C324.897,-293.163 324.897,-277.548 324.897,-264.237"/>
<polygon fill="black" stroke="black" points="328.397,-264.175 324.897,-254.175 321.397,-264.175 328.397,-264.175"/>
<text text-anchor="middle" x="349.897" y="-275.8" font-family="Times,serif" font-size="14.00">bfcore.rb</text>
</g>
<!-- 8cc.2.bf&#45;&gt;m3 -->
<g id="edge14" class="edge"><title>8cc.2.bf&#45;&gt;m3</title>
<path fill="none" stroke="black" d="M343.924,-219.859C361.998,-205.477 387.391,-185.269 394.175,-179.87"/>
</g>
<!-- 8cc.3.bf -->
<g id="node14" class="node"><title>8cc.3.bf</title>
<ellipse fill="none" stroke="black" cx="350.897" cy="-18" rx="39.7935" ry="18"/>
<text text-anchor="middle" x="350.897" y="-14.3" font-family="Times,serif" font-size="14.00">8cc.3.bf</text>
</g>
<!-- 8cc.2.bf&#45;&gt;8cc.3.bf -->
<g id="edge16" class="edge"><title>8cc.2.bf&#45;&gt;8cc.3.bf</title>
<path fill="none" stroke="black" d="M328.181,-207.716C333.175,-166.233 342.622,-87.7509 347.614,-46.2737"/>
<polygon fill="black" stroke="black" points="324.701,-207.342 326.981,-217.689 331.651,-208.179 324.701,-207.342"/>
<polygon fill="black" stroke="black" points="351.12,-46.4403 348.84,-36.0937 344.17,-45.6037 351.12,-46.4403"/>
<text text-anchor="middle" x="361.897" y="-144.8" font-family="Times,serif" font-size="14.00">identical!</text>
</g>
<!-- 8cc.3.bfs -->
<g id="node13" class="node"><title>8cc.3.bfs</title>
<ellipse fill="none" stroke="black" cx="395.897" cy="-105" rx="42.7926" ry="18"/>
<text text-anchor="middle" x="395.897" y="-101.3" font-family="Times,serif" font-size="14.00">8cc.3.bfs</text>
</g>
<!-- m3&#45;&gt;8cc.3.bfs -->
<g id="edge13" class="edge"><title>m3&#45;&gt;8cc.3.bfs</title>
<path fill="none" stroke="black" d="M395.897,-173.822C395.897,-167.16 395.897,-149.24 395.897,-133.492"/>
<polygon fill="black" stroke="black" points="399.397,-133.103 395.897,-123.103 392.397,-133.103 399.397,-133.103"/>
</g>
<!-- 8cc.3.bfs&#45;&gt;8cc.3.bf -->
<g id="edge15" class="edge"><title>8cc.3.bfs&#45;&gt;8cc.3.bf</title>
<path fill="none" stroke="black" d="M387.007,-87.2067C380.597,-75.0991 371.827,-58.5329 364.534,-44.759"/>
<polygon fill="black" stroke="black" points="367.542,-42.9586 359.769,-35.7584 361.355,-46.2339 367.542,-42.9586"/>
<text text-anchor="middle" x="400.897" y="-57.8" font-family="Times,serif" font-size="14.00">bfcore.rb</text>
</g>
<!-- lisp.bfs -->
<g id="node16" class="node"><title>lisp.bfs</title>
<ellipse fill="none" stroke="black" cx="72.8973" cy="-527" rx="36.2938" ry="18"/>
<text text-anchor="middle" x="72.8973" y="-523.3" font-family="Times,serif" font-size="14.00">lisp.bfs</text>
</g>
<!-- m4&#45;&gt;lisp.bfs -->
<g id="edge18" class="edge"><title>m4&#45;&gt;lisp.bfs</title>
<path fill="none" stroke="black" d="M72.8973,-581.775C72.8973,-576.83 72.8973,-565.897 72.8973,-555.171"/>
<polygon fill="black" stroke="black" points="76.3974,-555.153 72.8973,-545.153 69.3974,-555.153 76.3974,-555.153"/>
</g>
<!-- lisp.bf -->
<g id="node17" class="node"><title>lisp.bf</title>
<ellipse fill="none" stroke="black" cx="72.8973" cy="-440" rx="33.2948" ry="18"/>
<text text-anchor="middle" x="72.8973" y="-436.3" font-family="Times,serif" font-size="14.00">lisp.bf</text>
</g>
<!-- lisp.bfs&#45;&gt;lisp.bf -->
<g id="edge20" class="edge"><title>lisp.bfs&#45;&gt;lisp.bf</title>
<path fill="none" stroke="black" d="M72.8973,-508.799C72.8973,-497.163 72.8973,-481.548 72.8973,-468.237"/>
<polygon fill="black" stroke="black" points="76.3974,-468.175 72.8973,-458.175 69.3974,-468.175 76.3974,-468.175"/>
<text text-anchor="middle" x="97.8973" y="-479.8" font-family="Times,serif" font-size="14.00">bfcore.rb</text>
</g>
</g>
</svg>
